<svg width="44" height="44" viewBox="0 0 44 44" fill="none" xmlns="http://www.w3.org/2000/svg">
<rect width="44" height="44" rx="12" fill="#F8DFE1"/>
<path d="M26.844 21.7037C26.8365 21.44 26.7386 21.214 26.5352 21.0106L20.6741 15.2776C20.5008 15.1119 20.2974 15.0215 20.0488 15.0215C19.5441 15.0215 19.1523 15.4132 19.1523 15.918C19.1523 16.159 19.2503 16.385 19.4235 16.5583L24.697 21.7037L19.4235 26.8491C19.2503 27.0223 19.1523 27.2408 19.1523 27.4894C19.1523 27.9941 19.5441 28.3859 20.0488 28.3859C20.2899 28.3859 20.5008 28.2955 20.6741 28.1297L26.5352 22.3892C26.7461 22.1934 26.844 21.9674 26.844 21.7037Z" fill="black"/>
</svg>
