<svg width="44" height="44" viewBox="0 0 44 44" fill="none" xmlns="http://www.w3.org/2000/svg">
<rect width="44" height="44" rx="12" fill="#F8DFE1"/>
<path d="M17.156 21.7037C17.1635 21.44 17.2614 21.214 17.4648 21.0106L23.3259 15.2776C23.4992 15.1119 23.7026 15.0215 23.9512 15.0215C24.4559 15.0215 24.8477 15.4132 24.8477 15.918C24.8477 16.159 24.7497 16.385 24.5765 16.5583L19.303 21.7037L24.5765 26.8491C24.7497 27.0223 24.8477 27.2408 24.8477 27.4894C24.8477 27.9941 24.4559 28.3859 23.9512 28.3859C23.7101 28.3859 23.4992 28.2955 23.3259 28.1297L17.4648 22.3892C17.2539 22.1934 17.156 21.9674 17.156 21.7037Z" fill="black"/>
</svg>
