<svg width="88" height="50" viewBox="0 0 88 50" fill="none" xmlns="http://www.w3.org/2000/svg">
<rect width="87.5" height="50" rx="25" fill="#FEF4F5"/>
<path d="M21.4852 32.3837L21.2713 34.6722L23.3086 33.6079L27.0911 31.632C28.1754 31.9586 29.3378 32.1367 30.5456 32.1367C36.1794 32.1367 41.0933 28.1988 41.0933 22.9433C41.0933 17.6879 36.1794 13.75 30.5456 13.75C24.9132 13.75 19.9995 17.688 19.9995 22.9433C19.9995 24.9091 20.7116 26.7061 21.8788 28.173L21.4852 32.3837Z" stroke="black" stroke-width="2.5"/>
<path d="M50.3295 31.25V30.77L55.7295 25.07C57.0895 23.63 57.9095 22.37 57.9095 21.01C57.9095 19.67 57.1495 18.83 55.7695 18.83C54.3495 18.83 53.4495 19.65 53.2095 21.67H50.7695C50.9495 18.55 52.8295 16.75 55.8495 16.75C58.8095 16.75 60.5695 18.45 60.5695 20.97C60.5695 22.83 59.4695 24.45 57.7695 26.09L54.5895 29.19H60.6695V31.25H50.3295ZM65.252 31.25V19.59L62.232 21.65V19.31L65.552 16.95H67.932V31.25H65.252Z" fill="black"/>
</svg>
