  <svg
    width="50"
    height="50"
    viewBox="0 0 50 50"
    fill="none"
    xmlns="http://www.w3.org/2000/svg"
  >
    <circle cx="25" cy="25" r="25" fill="black" />
    <path
      fill-rule="evenodd"
      clip-rule="evenodd"
      d="M34.7858 14H15.2142C14.5435 14 14 14.5435 14 15.2143V34.7857C14 35.4563 14.5435 36 15.2142 36H25.7509V27.4804H22.8839V24.1602H25.7509V21.7116C25.7509 18.8701 27.4864 17.3228 30.0213 17.3228C31.2355 17.3228 32.2791 17.4132 32.5833 17.4536V20.4231L30.8251 20.424C29.4466 20.424 29.1796 21.079 29.1796 22.0404V24.1602H32.4675L32.0393 27.4804H29.1796V36H34.7858C35.4563 36 36 35.4563 36 34.7857V15.2143C36 14.5435 35.4563 14 34.7858 14Z"
      fill="white"
    />
  </svg>