<svg width="80" height="50" viewBox="0 0 80 50" fill="none" xmlns="http://www.w3.org/2000/svg">
<rect width="80" height="50" rx="25" fill="#FEF4F5"/>
<mask id="path-2-outside-1_120_134" maskUnits="userSpaceOnUse" x="19.5242" y="14.5186" width="23" height="21" fill="black">
<rect fill="white" x="19.5242" y="14.5186" width="23" height="21"/>
<path fill-rule="evenodd" clip-rule="evenodd" d="M31.1873 32.5347C31.1873 32.5347 39.8505 27.7294 39.8505 22.4549C39.8505 17.1816 33.9959 15.8927 31.1873 19.7607C28.3775 15.8927 22.5242 17.1816 22.5242 22.4549C22.5242 27.7294 31.1873 32.5347 31.1873 32.5347Z"/>
</mask>
<path d="M29.9734 30.3461C28.7647 31.0166 28.3283 32.5399 28.9988 33.7486C29.6692 34.9573 31.1926 35.3937 32.4013 34.7232L29.9734 30.3461ZM31.1873 19.7607L29.1625 21.2315C29.6334 21.8798 30.3863 22.2634 31.1876 22.2633C31.9889 22.2633 32.7417 21.8795 33.2125 21.2311L31.1873 19.7607ZM29.9734 34.7232C31.1821 35.3937 32.7054 34.9573 33.3759 33.7486C34.0463 32.5399 33.61 31.0166 32.4013 30.3461L29.9734 34.7232ZM31.1873 32.5347C32.4013 34.7232 32.4018 34.7229 32.4024 34.7226C32.4026 34.7225 32.4032 34.7222 32.4037 34.7219C32.4046 34.7214 32.4056 34.7208 32.4068 34.7201C32.4092 34.7188 32.4122 34.7172 32.4156 34.7152C32.4225 34.7114 32.4315 34.7063 32.4424 34.7001C32.4644 34.6877 32.4945 34.6707 32.5321 34.649C32.6073 34.6058 32.7128 34.5443 32.8443 34.4657C33.107 34.3085 33.4752 34.0817 33.9139 33.7939C34.7864 33.2214 35.962 32.3914 37.1498 31.3711C38.3271 30.3596 39.5852 29.1026 40.5652 27.664C41.537 26.2375 42.3531 24.4579 42.3531 22.4549H37.3478C37.3478 23.0891 37.081 23.8881 36.4285 24.846C35.7841 25.7919 34.8765 26.7252 33.888 27.5744C32.91 28.4146 31.9198 29.1156 31.168 29.609C30.7945 29.854 30.4858 30.0439 30.2748 30.1701C30.1695 30.2332 30.0888 30.2801 30.0371 30.3098C30.0113 30.3247 29.9927 30.3352 29.9819 30.3413C29.9765 30.3444 29.973 30.3463 29.9716 30.3471C29.9709 30.3475 29.9706 30.3476 29.9709 30.3475C29.9711 30.3474 29.9714 30.3472 29.9718 30.347C29.972 30.3469 29.9724 30.3467 29.9725 30.3466C29.9729 30.3464 29.9734 30.3461 31.1873 32.5347ZM42.3531 22.4549C42.3531 18.7546 40.1961 16.0789 37.2343 15.2663C34.3801 14.4832 31.1572 15.5426 29.1622 18.2902L33.2125 21.2311C34.026 20.1107 35.1347 19.8806 35.9099 20.0933C36.5775 20.2764 37.3478 20.8818 37.3478 22.4549H42.3531ZM33.2121 18.2898C31.2167 15.5428 27.9941 14.4831 25.1398 15.2663C22.1779 16.079 20.0215 18.7549 20.0215 22.4549H25.0269C25.0269 20.8815 25.7971 20.2763 26.4643 20.0933C27.2392 19.8806 28.3481 20.1105 29.1625 21.2315L33.2121 18.2898ZM20.0215 22.4549C20.0215 24.4579 20.8377 26.2375 21.8094 27.664C22.7894 29.1026 24.0475 30.3596 25.2249 31.3711C26.4126 32.3914 27.5882 33.2214 28.4607 33.7939C28.8994 34.0817 29.2676 34.3085 29.5303 34.4657C29.6619 34.5443 29.7674 34.6058 29.8425 34.649C29.8802 34.6707 29.9102 34.6877 29.9322 34.7001C29.9432 34.7063 29.9521 34.7114 29.959 34.7152C29.9625 34.7172 29.9654 34.7188 29.9678 34.7201C29.969 34.7208 29.97 34.7214 29.971 34.7219C29.9714 34.7222 29.972 34.7225 29.9723 34.7226C29.9728 34.7229 29.9734 34.7232 31.1873 32.5347C32.4013 30.3461 32.4017 30.3464 32.4022 30.3466C32.4023 30.3467 32.4027 30.3469 32.4029 30.347C32.4033 30.3472 32.4035 30.3474 32.4037 30.3475C32.404 30.3476 32.4038 30.3475 32.403 30.3471C32.4016 30.3463 32.3981 30.3444 32.3927 30.3413C32.3819 30.3352 32.3633 30.3247 32.3375 30.3098C32.2858 30.2801 32.2052 30.2332 32.0998 30.1701C31.8888 30.0439 31.5801 29.854 31.2067 29.609C30.4548 29.1156 29.4647 28.4146 28.4866 27.5744C27.4981 26.7252 26.5905 25.7919 25.9461 24.846C25.2936 23.8881 25.0269 23.0891 25.0269 22.4549H20.0215Z" fill="black" mask="url(#path-2-outside-1_120_134)"/>
<path d="M54.4439 31.4678C51.6008 31.4678 49.0781 30.0262 49.0781 27.2232C49.0781 25.4013 50.1593 24.1399 51.761 23.5793C50.4396 23.0588 49.6387 22.0177 49.6387 20.5961C49.6387 18.1735 51.9612 16.752 54.4439 16.752C57.0066 16.752 59.229 18.1935 59.229 20.5561C59.229 22.0177 58.3881 22.9987 57.1067 23.5593C58.7886 24.16 59.7696 25.4013 59.7696 27.1432C59.7696 29.9662 57.327 31.4678 54.4439 31.4678ZM54.4439 29.4656C55.9655 29.4656 57.1067 28.5847 57.1067 26.983C57.1067 25.4013 55.9455 24.5404 54.4639 24.5404C53.0023 24.5404 51.761 25.4013 51.761 27.003C51.761 28.6047 53.0023 29.4656 54.4439 29.4656ZM54.4839 22.7985C55.7853 22.7985 56.7063 22.0177 56.7063 20.7163C56.7063 19.4949 55.7253 18.6741 54.4439 18.6741C53.1825 18.6741 52.1815 19.4549 52.1815 20.7363C52.1815 22.0377 53.2426 22.7985 54.4839 22.7985Z" fill="black"/>
</svg>
