<svg width="64" height="50" viewBox="0 0 64 50" fill="none" xmlns="http://www.w3.org/2000/svg">
<rect width="63.75" height="50" rx="25" fill="#FEF4F5"/>
<path d="M19.5125 21.9676L31.4473 20.7268L31.4492 18.2506V16.3015C31.4492 16.1918 31.4681 16.0859 31.4936 15.9836C31.5011 15.9548 31.5125 15.9241 31.521 15.8981C31.5474 15.8173 31.5814 15.741 31.6219 15.6695C31.6342 15.6462 31.6436 15.6249 31.6578 15.6035C31.7097 15.5245 31.7673 15.4483 31.8362 15.3813C31.8418 15.3758 31.8475 15.373 31.855 15.3674C31.9475 15.28 32.0523 15.2019 32.1703 15.1415C32.6129 14.9203 33.1452 14.9603 33.5472 15.2484L44.4552 23.952C44.7968 24.1974 44.9998 24.5869 44.9998 25.007C44.9998 25.4225 44.7968 25.8147 44.4552 26.0582L33.5463 34.7628C33.3018 34.9385 33.0064 35.01 32.7139 34.9989H32.712C32.6252 34.9942 32.5383 34.9859 32.4524 34.9636C32.3543 34.944 32.2609 34.9143 32.1703 34.8697C31.7276 34.6475 31.4483 34.1977 31.4483 33.7078L31.4492 29.2835L19.5125 28.0427C17.8091 28.0436 16.4283 26.6838 16.4283 25.0051C16.4283 23.3265 17.8091 21.9676 19.5125 21.9676" stroke="#1C1C1E" stroke-width="2.5" stroke-linecap="round" stroke-linejoin="round"/>
</svg>
