  <svg
    width="50"
    height="50"
    viewBox="0 0 50 50"
    fill="none"
    xmlns="http://www.w3.org/2000/svg"
  >
    <circle cx="25" cy="25" r="25" fill="black" />
    <path
      d="M34.9782 24.7518L32.2665 27.4855C31.8023 27.9525 31.044 27.9534 30.5789 27.4855C30.1138 27.0168 30.1138 26.2527 30.5789 25.7839L33.2906 23.0502C34.1436 22.1914 34.614 21.0549 34.6149 19.8495C34.6149 18.7192 34.2077 17.6393 33.4688 16.8097C32.693 15.9386 31.5873 15.4406 30.356 15.407C30.3104 15.4061 30.2656 15.4052 30.22 15.4052C28.8984 15.4052 27.6154 15.9368 26.6834 16.8752L24.2113 19.3666C23.7462 19.8353 22.9888 19.8344 22.5229 19.3666C22.2982 19.1393 22.1736 18.8368 22.1736 18.5158C22.1736 18.1947 22.2982 17.8922 22.5229 17.6649L24.995 15.1735C26.4184 13.7399 28.4052 12.9519 30.4183 13.0023C32.3121 13.0545 34.0251 13.8345 35.2432 15.2001C36.3761 16.4719 37.0001 18.124 37.0001 19.8486C37.0001 21.697 36.2822 23.4367 34.9782 24.7518Z"
      fill="white"
    />
    <path
      d="M27.4635 32.3251L24.9756 34.8333C23.5565 36.2635 21.6031 37.0506 19.5662 36.9975C17.6768 36.9453 15.9673 36.1644 14.7528 34.798C13.6225 33.5271 13.0003 31.8785 13.0003 30.153C12.9836 28.3063 13.6971 26.5614 15.0099 25.2392L17.7216 22.5063C17.9471 22.279 18.2464 22.1543 18.5649 22.1543C18.8835 22.1543 19.1836 22.2799 19.4092 22.5063C19.6338 22.7336 19.7584 23.0361 19.7584 23.3571C19.7584 23.6782 19.6338 23.9806 19.4092 24.2079L16.6975 26.9408C15.8418 27.8031 15.3767 28.9413 15.3873 30.1415C15.3873 31.2797 15.7936 32.364 16.5307 33.1927C17.3039 34.0621 18.4061 34.5592 19.6321 34.5928C20.9791 34.6149 22.3297 34.0975 23.2889 33.1308L25.7768 30.6235C26.2401 30.1556 26.9984 30.1548 27.4644 30.6235C27.9286 31.0931 27.9286 31.8564 27.4635 32.3251Z"
      fill="white"
    />
    <path
      d="M19.6662 28.6706L28.6402 19.6265C28.8727 19.3921 29.1781 19.2754 29.4835 19.2754C29.7889 19.2754 30.0943 19.393 30.3269 19.6265C30.792 20.0952 30.792 20.8594 30.3269 21.3281L21.3537 30.3722C20.9027 30.8268 20.1172 30.8268 19.6662 30.3722C19.4415 30.1449 19.3169 29.8424 19.3169 29.5214C19.3169 29.2004 19.4415 28.8979 19.6662 28.6706Z"
      fill="white"
    />
  </svg>