<svg width="34" height="34" viewBox="0 0 34 34" fill="none" xmlns="http://www.w3.org/2000/svg">
<g clip-path="url(#clip0_120_127)">
<circle cx="17.0002" cy="16.8747" r="13.9323" fill="white"/>
<path d="M9.57104 8.75732L21.6087 24.849H24.3345L12.2969 8.75732H9.57104Z" fill="black"/>
<path d="M16.9285 0.337891C7.83512 0.337891 0.463623 7.70938 0.463623 16.8027C0.463623 25.8961 7.83512 33.2676 16.9285 33.2676C26.0218 33.2676 33.3933 25.8961 33.3933 16.8027C33.3933 7.70938 26.0218 0.337891 16.9285 0.337891ZM20.9649 26.1343L15.4847 18.8067L8.7019 26.1343H6.95845L14.7057 17.765L7.00712 7.47119H12.9407L17.9877 14.2196L24.2341 7.47119H25.9775L18.7667 15.2616L26.8985 26.1343H20.9649Z" fill="black"/>
</g>
<defs>
<clipPath id="clip0_120_127">
<rect width="33.3333" height="33.3333" fill="white" transform="translate(0.333496 0.208008)"/>
</clipPath>
</defs>
</svg>
